<svg width="21" height="15" viewBox="0 0 21 15" fill="none" xmlns="http://www.w3.org/2000/svg">
<path d="M3 0C2.20435 0 1.44129 0.316071 0.87868 0.87868C0.316071 1.44129 0 2.20435 0 3V12C0 12.7956 0.316071 13.5587 0.87868 14.1213C1.44129 14.6839 2.20435 15 3 15H11.25C12.0456 15 12.8087 14.6839 13.3713 14.1213C13.9339 13.5587 14.25 12.7956 14.25 12V3C14.25 2.20435 13.9339 1.44129 13.3713 0.87868C12.8087 0.316071 12.0456 0 11.25 0H3ZM18.44 14.25C16.7176 12.5276 15.75 10.1916 15.75 7.75576V7.24424C15.75 4.80843 16.7176 2.47238 18.44 0.75C19.384 -0.195 21 0.474 21 1.81V13.19C21 14.526 19.384 15.195 18.44 14.25Z" fill="#B61F26"/>
</svg>
