<svg width="20" height="22" viewBox="0 0 20 22" fill="none" xmlns="http://www.w3.org/2000/svg">
<path d="M10.5942 21.258L10.5822 21.26L10.5112 21.295L10.4912 21.299L10.4772 21.295L10.4062 21.259C10.3955 21.2563 10.3875 21.2583 10.3822 21.265L10.3782 21.275L10.3612 21.703L10.3662 21.723L10.3762 21.736L10.4802 21.81L10.4952 21.814L10.5072 21.81L10.6112 21.736L10.6232 21.72L10.6272 21.703L10.6102 21.276C10.6075 21.2653 10.6022 21.2593 10.5942 21.258ZM10.8582 21.145L10.8442 21.147L10.6602 21.24L10.6502 21.25L10.6472 21.261L10.6652 21.691L10.6702 21.703L10.6782 21.711L10.8792 21.803C10.8918 21.8063 10.9015 21.8037 10.9082 21.795L10.9122 21.781L10.8782 21.167C10.8748 21.1543 10.8682 21.147 10.8582 21.145ZM10.1432 21.147C10.1388 21.1443 10.1335 21.1435 10.1285 21.1446C10.1234 21.1457 10.119 21.1487 10.1162 21.153L10.1102 21.167L10.0762 21.781C10.0768 21.793 10.0825 21.801 10.0932 21.805L10.1082 21.803L10.3092 21.71L10.3192 21.702L10.3222 21.691L10.3402 21.261L10.3372 21.249L10.3272 21.239L10.1432 21.147Z" fill="#33587D"/>
<path d="M9 0C7.67392 0 6.40215 0.526784 5.46447 1.46447C4.52678 2.40215 4 3.67392 4 5C4 6.32608 4.52678 7.59785 5.46447 8.53553C6.40215 9.47322 7.67392 10 9 10C10.3261 10 11.5979 9.47322 12.5355 8.53553C13.4732 7.59785 14 6.32608 14 5C14 3.67392 13.4732 2.40215 12.5355 1.46447C11.5979 0.526784 10.3261 0 9 0ZM9 11C6.605 11 4.425 11.694 2.822 12.672C2.022 13.16 1.338 13.736 0.844 14.362C0.358 14.976 0 15.713 0 16.5C0 17.345 0.411 18.011 1.003 18.486C1.563 18.936 2.302 19.234 3.087 19.442C4.665 19.859 6.771 20 9 20L9.685 19.995C9.85248 19.9927 10.0167 19.9484 10.1626 19.8661C10.3085 19.7838 10.4313 19.6662 10.5199 19.524C10.6085 19.3819 10.66 19.2198 10.6696 19.0525C10.6792 18.8853 10.6467 18.7184 10.575 18.567C10.1958 17.7644 9.99942 16.8877 10 16C10 14.748 10.383 13.588 11.037 12.627C11.1342 12.4842 11.1928 12.3186 11.207 12.1465C11.2212 11.9743 11.1905 11.8014 11.118 11.6446C11.0455 11.4878 10.9336 11.3524 10.7932 11.2517C10.6528 11.151 10.4888 11.0884 10.317 11.07C9.88633 11.0233 9.44733 11 9 11ZM16.316 12.051C16.1109 11.9827 15.8891 11.9827 15.684 12.051L12.684 13.051C12.4848 13.1173 12.3115 13.2447 12.1888 13.415C12.066 13.5854 11.9999 13.79 12 14V15.671C11.9999 16.7406 12.3942 17.7727 13.1075 18.5698C13.8207 19.3668 14.8029 19.8729 15.866 19.991C15.956 20.001 16.0453 20.001 16.134 19.991C17.1971 19.8729 18.1793 19.3668 18.8925 18.5698C19.6058 17.7727 20.0001 16.7406 20 15.671V14C20.0001 13.79 19.934 13.5854 19.8112 13.415C19.6885 13.2447 19.5152 13.1173 19.316 13.051L16.316 12.051Z" fill="#33587D"/>
</svg>
