<svg width="18" height="18" viewBox="0 0 18 18" fill="none" xmlns="http://www.w3.org/2000/svg">
<path fill-rule="evenodd" clip-rule="evenodd" d="M8.99611 10H9.01611C11.7776 10 14.0161 7.7615 14.0161 5C14.0161 2.2385 11.7776 0 9.01611 0H8.97611C6.23311 0.0215 4.01611 2.252 4.01611 5C4.01611 7.748 6.23311 9.9785 8.97611 10H8.99611ZM12.9851 5.5H11.9851C11.9644 5.84567 11.9236 6.179 11.8626 6.5H12.7256C12.8531 6.185 12.9416 5.8495 12.9856 5.5M12.1391 7.5H11.5991C11.4966 7.795 11.3766 8.0715 11.2411 8.325C11.5807 8.09747 11.8839 7.81924 12.1391 7.5ZM10.8426 6.5C10.9111 6.1865 10.9596 5.8515 10.9831 5.5H9.51611V6.5H10.8426ZM9.51611 7.5H10.5276C10.4518 7.6795 10.3638 7.85358 10.2641 8.021C10.0141 8.4365 9.75561 8.6935 9.51611 8.839V7.5ZM8.51611 6.5V5.5H7.01711C7.04061 5.8515 7.08911 6.1865 7.15761 6.5H8.51611ZM7.47261 7.5H8.51611V8.858C8.26811 8.716 7.99711 8.4555 7.73611 8.021C7.63644 7.85358 7.5484 7.6795 7.47261 7.5ZM6.13761 6.5C6.07661 6.179 6.03578 5.84567 6.01511 5.5H5.04711C5.09061 5.8495 5.17911 6.185 5.30711 6.5H6.13761ZM5.89361 7.5H6.40161C6.49911 7.782 6.61361 8.047 6.74161 8.2905C6.42206 8.06958 6.13639 7.80328 5.89361 7.5ZM11.9851 4.5C11.9653 4.16442 11.9244 3.83043 11.8626 3.5H12.7256C12.8531 3.815 12.9416 4.1505 12.9856 4.5H11.9851ZM12.1386 2.5H11.5986C11.501 2.21608 11.3813 1.94023 11.2406 1.675C11.5804 1.90249 11.8832 2.18072 12.1386 2.5ZM9.51611 2.5H10.5276C10.4518 2.3205 10.3638 2.14642 10.2641 1.979C10.0141 1.563 9.75561 1.3065 9.51611 1.161V2.5ZM10.8426 3.5H9.51611V4.5H10.9831C10.9604 4.16372 10.9135 3.82952 10.8426 3.5ZM8.51611 1.142V2.5H7.47261C7.55328 2.311 7.64111 2.13733 7.73611 1.979C7.99661 1.5445 8.26811 1.284 8.51611 1.142ZM8.51611 3.5H7.15761C7.08677 3.82952 7.03981 4.16372 7.01711 4.5H8.51611V3.5ZM6.74111 1.7095C6.60836 1.96422 6.49472 2.22844 6.40111 2.5H5.89361C6.13639 2.19672 6.42156 1.93042 6.74111 1.7095ZM6.13811 3.5H5.30711C5.17758 3.82069 5.09018 4.15683 5.04711 4.5H6.01561C6.03628 4.15433 6.07711 3.821 6.13811 3.5Z" fill="#33587D"/>
<path d="M2.0545 13.3105C2.338 13.6115 2.6195 13.9105 2.8845 14.2905V15H6.601V14.2905C6.5345 13.7385 6.4175 12.744 6.407 12.4675C6.393 12.0785 5.871 11.3695 5.871 11.3695L4.2685 9.34949C4.2685 9.34949 3.815 8.87049 3.5555 8.33949C3.2955 7.80799 2.7435 8.47649 2.6705 8.95449C2.5965 9.43249 2.7365 9.68449 2.7365 9.68449L3.6515 11.5035C3.6515 11.5035 2.5905 10.05 2.261 9.46599C2.094 9.16999 2.0475 8.54299 1.995 7.84249C1.9445 7.15999 1.8885 6.40749 1.711 5.82249C1.351 4.63749 0.309999 4.93399 0.129499 5.46399C-0.0505009 5.99349 -0.0100008 9.49299 0.0554992 10.0765C0.106999 10.5335 0.382499 10.9805 0.692999 11.4845C0.778999 11.6245 0.867999 11.7685 0.955499 11.918C1.3035 12.514 1.6805 12.9145 2.0545 13.3105ZM15.1165 14.2905C15.3815 13.9105 15.663 13.6115 15.9465 13.3105C16.3205 12.9145 16.6975 12.514 17.046 11.918C17.133 11.768 17.222 11.6245 17.308 11.485C17.6185 10.981 17.894 10.5335 17.9455 10.0765C18.011 9.49299 18.052 5.99349 17.8715 5.46399C17.691 4.93399 16.65 4.63749 16.29 5.82299C16.113 6.40799 16.057 7.15999 16.006 7.84249C15.9535 8.54299 15.907 9.16999 15.74 9.46599C15.4105 10.0505 14.349 11.5035 14.349 11.5035L15.2645 9.68449C15.2645 9.68449 15.4045 9.43249 15.331 8.95449C15.2575 8.47649 14.7055 7.80799 14.446 8.33949C14.186 8.87049 13.7325 9.34949 13.7325 9.34949L12.13 11.3695C12.13 11.3695 11.608 12.0785 11.594 12.4675C11.584 12.744 11.4665 13.7385 11.4 14.2905V15H15.1165V14.2905ZM10 17.5C10 17.6326 10.0527 17.7598 10.1464 17.8535C10.2402 17.9473 10.3674 18 10.5 18H14.5C14.6326 18 14.7598 17.9473 14.8536 17.8535C14.9473 17.7598 15 17.6326 15 17.5V16.5C15 16.3674 14.9473 16.2402 14.8536 16.1464C14.7598 16.0527 14.6326 16 14.5 16H10.5C10.3674 16 10.2402 16.0527 10.1464 16.1464C10.0527 16.2402 10 16.3674 10 16.5V17.5ZM8.001 17.5C8.001 17.6326 7.94832 17.7598 7.85455 17.8535C7.76078 17.9473 7.63361 18 7.501 18H3.501C3.36839 18 3.24121 17.9473 3.14745 17.8535C3.05368 17.7598 3.001 17.6326 3.001 17.5V16.5C3.001 16.3674 3.05368 16.2402 3.14745 16.1464C3.24121 16.0527 3.36839 16 3.501 16H7.501C7.63361 16 7.76078 16.0527 7.85455 16.1464C7.94832 16.2402 8.001 16.3674 8.001 16.5V17.5Z" fill="#33587D"/>
</svg>
