<svg width="21" height="21" viewBox="0 0 21 21" fill="none" xmlns="http://www.w3.org/2000/svg">
<path fill-rule="evenodd" clip-rule="evenodd" d="M10.3983 0.00184688C10.8982 -0.0196272 11.3884 0.146781 11.7714 0.468644L11.8993 0.585831L13.7987 2.48427H16.4852C16.9895 2.4844 17.4749 2.67555 17.8446 3.01845C18.2144 3.36151 18.4416 3.83187 18.4794 4.33485L18.4852 4.48427V7.17079L20.3847 9.07021C20.7384 9.42419 20.9471 9.89836 20.9686 10.3983C20.9901 10.8984 20.823 11.3883 20.5009 11.7714L20.3837 11.8983L18.4843 13.7987V16.4843C18.4844 16.9888 18.2941 17.4756 17.9511 17.8456C17.608 18.2156 17.1368 18.4415 16.6337 18.4794L16.4852 18.4843H13.7997L11.9003 20.3847C11.5462 20.7385 11.0722 20.9462 10.5722 20.9677C10.0721 20.9891 9.58216 20.823 9.19911 20.5009L9.07216 20.3847L7.17177 18.4843H4.48524C3.98073 18.4844 3.49486 18.2941 3.12489 17.9511C2.75491 17.608 2.52797 17.1378 2.49013 16.6347L2.48524 16.4843V13.7987L0.584854 11.8983C0.231332 11.5444 0.0234266 11.0709 0.0018458 10.5712C-0.0196208 10.0713 0.146774 9.58113 0.468643 9.19814L0.584854 9.07021L2.48524 7.17079V4.48427C2.48543 3.98 2.67645 3.49457 3.01942 3.12489C3.36241 2.75529 3.83205 2.52899 4.33485 2.4911L4.48524 2.48427H7.17079L9.07118 0.584855C9.42512 0.231382 9.89859 0.0233735 10.3983 0.00184688ZM13.7821 7.0536C13.5199 7.05123 13.2666 7.15608 13.078 7.3456L8.83388 11.7616L7.0663 9.92177C6.87874 9.72684 6.62437 9.61706 6.35927 9.61708C6.09403 9.61718 5.83974 9.72757 5.65224 9.92275C5.46482 10.1179 5.35927 10.3822 5.35927 10.6581C5.35936 10.9341 5.4646 11.1993 5.65224 11.3944L8.05653 13.8954C8.15858 14.0016 8.27965 14.0859 8.41298 14.1434C8.54632 14.2009 8.68954 14.2303 8.83388 14.2304C8.97837 14.2304 9.12226 14.201 9.25575 14.1434C9.38908 14.0859 9.51015 14.0016 9.6122 13.8954L14.4921 8.81728C14.6742 8.62105 14.7756 8.35765 14.7733 8.08486C14.771 7.8122 14.6657 7.5511 14.4804 7.35829C14.295 7.16552 14.0442 7.05607 13.7821 7.0536Z" fill="#33587D"/>
</svg>
