<svg width="20" height="19" viewBox="0 0 20 19" fill="none" xmlns="http://www.w3.org/2000/svg">
<path d="M5.475 19C3.95833 19 2.66667 18.4667 1.6 17.4C0.533333 16.3333 0 15.0417 0 13.525C0 12.0917 0.479333 10.854 1.438 9.812C2.39667 8.77 3.59233 8.191 5.025 8.075L1 0H8L10 4L12 0H19L15 8.025C16.4167 8.15833 17.6043 8.746 18.563 9.788C19.5217 10.83 20.0007 12.0673 20 13.5C20 15.0333 19.4667 16.3333 18.4 17.4C17.3333 18.4667 16.0333 19 14.5 19C14.35 19 14.196 18.996 14.038 18.988C13.88 18.98 13.7257 18.959 13.575 18.925C14.4917 18.325 15.2083 17.546 15.725 16.588C16.2417 15.63 16.5 14.6007 16.5 13.5C16.5 11.6833 15.8707 10.146 14.612 8.888C13.3533 7.63 11.816 7.00067 10 7C8.184 6.99933 6.64667 7.62867 5.388 8.888C4.12933 10.1473 3.5 11.6847 3.5 13.5C3.5 14.6333 3.73333 15.7 4.2 16.7C4.66667 17.7 5.4 18.4417 6.4 18.925C6.25 18.9583 6.096 18.9793 5.938 18.988C5.78 18.9967 5.62567 19.0007 5.475 19ZM6.813 16.688C5.93767 15.8127 5.5 14.75 5.5 13.5C5.5 12.25 5.93767 11.1877 6.813 10.313C7.68833 9.43833 8.75067 9.00067 10 9C11.2493 8.99933 12.312 9.437 13.188 10.313C14.064 11.189 14.5013 12.2513 14.5 13.5C14.4987 14.7487 14.0613 15.8113 13.188 16.688C12.3147 17.5647 11.252 18.002 10 18C8.748 17.998 7.68567 17.5607 6.813 16.688ZM8.15 16.25L10 14.85L11.85 16.25L11.15 13.975L13 12.65H10.725L10 10.25L9.275 12.65H7L8.85 13.975L8.15 16.25Z" fill="#33587D"/>
</svg>
