<svg width="15" height="21" viewBox="0 0 15 21" fill="none" xmlns="http://www.w3.org/2000/svg">
<path d="M5.2905 14.6711L5.289 14.6666L5.004 14.5736C3.64854 14.0945 2.45933 13.2359 1.578 12.1001C0.865327 11.1823 0.375636 10.1116 0.147551 8.97221C-0.0805334 7.83286 -0.0407721 6.6561 0.263699 5.53475C0.568169 4.4134 1.12902 3.37812 1.90202 2.51059C2.67501 1.64306 3.639 0.966994 4.71796 0.535727C5.79691 0.104459 6.96131 -0.0702156 8.11932 0.0254799C9.27733 0.121175 10.3973 0.484624 11.3908 1.08716C12.3843 1.68969 13.2242 2.51483 13.8443 3.49748C14.4644 4.48014 14.8477 5.59343 14.964 6.74956C15.0045 7.16206 14.664 7.49806 14.25 7.49806C13.836 7.49806 13.5045 7.16056 13.455 6.74956C13.3211 5.6888 12.9062 4.68309 12.2533 3.83648C11.6003 2.98986 10.733 2.33311 9.74103 1.93417C8.74908 1.53522 7.66855 1.40858 6.61124 1.56735C5.55392 1.72612 4.55824 2.16453 3.72721 2.83721C2.89618 3.5099 2.25999 4.39243 1.88447 5.39348C1.50895 6.39453 1.40775 7.47774 1.59133 8.53103C1.7749 9.58432 2.23659 10.5694 2.92863 11.3844C3.62066 12.1994 4.5179 12.8147 5.5275 13.1666C5.78216 12.7021 6.19254 12.3423 6.68637 12.1507C7.1802 11.959 7.72581 11.9478 8.22713 12.1189C8.72846 12.2899 9.15334 12.6324 9.42698 13.086C9.70061 13.5396 9.80544 14.0751 9.72301 14.5984C9.64058 15.1216 9.37618 15.599 8.97636 15.9465C8.57654 16.294 8.06695 16.4893 7.5373 16.498C7.00766 16.5066 6.49194 16.3282 6.08094 15.994C5.66995 15.6598 5.39004 15.1913 5.2905 14.6711ZM4.101 15.8336C2.63191 15.2338 1.34751 14.2562 0.378 13.0001C0.131573 13.3696 4.84048e-05 13.8039 0 14.2481V14.9981C0 17.9546 2.79 20.9981 7.5 20.9981C12.21 20.9981 15 17.9546 15 14.9981V14.2481C15 13.6513 14.7629 13.079 14.341 12.6571C13.919 12.2351 13.3467 11.9981 12.75 11.9981H10.5C10.8146 12.4182 11.0375 12.8998 11.1543 13.4115C11.271 13.9232 11.2791 14.4538 11.1779 14.9688C11.0766 15.4839 10.8684 15.972 10.5667 16.4015C10.2649 16.8309 9.87637 17.1923 9.42616 17.4622C8.97594 17.732 8.47408 17.9044 7.95306 17.968C7.43204 18.0317 6.90345 17.9853 6.40151 17.8317C5.89956 17.6782 5.43543 17.4211 5.03915 17.0768C4.64286 16.7326 4.32326 16.3091 4.101 15.8336ZM12 7.49806C12 6.12706 11.3865 4.89856 10.419 4.07356C9.94661 3.67343 9.39675 3.37507 8.80379 3.19715C8.21084 3.01923 7.58755 2.96557 6.97291 3.03953C6.35827 3.11348 5.7655 3.31347 5.23168 3.62697C4.69785 3.94047 4.23446 4.36075 3.87047 4.86151C3.50648 5.36228 3.24974 5.93276 3.11629 6.53728C2.98284 7.1418 2.97556 7.76735 3.09491 8.37481C3.21425 8.98227 3.45765 9.55857 3.80989 10.0677C4.16212 10.5768 4.61562 11.0077 5.142 11.3336C5.809 10.7928 6.64136 10.4974 7.5 10.4966C8.35828 10.4965 9.1906 10.7909 9.858 11.3306C10.5126 10.9278 11.0531 10.3642 11.4281 9.69326C11.8031 9.02237 12 8.26662 12 7.49806Z" fill="#33587D"/>
</svg>
