<svg width="20" height="20" viewBox="0 0 20 20" fill="none" xmlns="http://www.w3.org/2000/svg">
<path d="M10.005 0.000942095C4.49249 0.00528273 0.00416666 4.64543 0 10.3473V10.3733L1.70166 11.4064L1.725 11.3908C2.5364 10.8112 3.49783 10.5023 4.48166 10.5053C4.78999 10.5053 5.09249 10.5348 5.38582 10.5921L5.35582 10.5869C6.25198 10.7527 7.0834 11.1836 7.75081 11.8283L7.74748 11.8266L8.03915 12.1096L8.20415 11.7328C8.36415 11.3682 8.54914 11.0262 8.75414 10.7145C8.83748 10.5895 8.92748 10.4628 9.03081 10.3273L9.20164 10.1042L8.99164 9.92104C8.07382 9.11963 6.97259 8.57922 5.79499 8.35233L5.75165 8.34539C4.61805 8.13109 3.4515 8.20585 2.35166 8.56329L2.40166 8.5494C3.21166 4.85464 6.32998 2.27891 10.0125 2.2763C11.0329 2.27281 12.0439 2.47903 12.9877 2.88318C13.9314 3.28733 14.7894 3.88145 15.5125 4.63154C16.5519 5.69922 17.277 7.05396 17.6025 8.53637C16.9285 8.3178 16.2267 8.20687 15.5208 8.20735H15.3925C15.0958 8.21256 14.8091 8.236 14.5291 8.27507L14.5666 8.27073L14.5316 8.27594C14.4229 8.29055 14.3145 8.30792 14.2066 8.32802C14.1591 8.33671 14.1116 8.34712 14.065 8.35667C13.9555 8.3799 13.8465 8.40595 13.7383 8.4348L13.6233 8.46432C13.4881 8.50216 13.3538 8.54384 13.2208 8.58933L13.1958 8.59801C12.9008 8.70219 12.6058 8.83067 12.3208 8.97999L12.2983 8.99127C12.1655 9.06101 12.0349 9.13512 11.9066 9.21351L11.8775 9.23261C11.2112 9.64608 10.6172 10.1745 10.1208 10.7952L10.1116 10.8074L10.0491 10.8873C9.93891 11.0286 9.83383 11.1743 9.73414 11.3239C9.66081 11.4368 9.58664 11.5575 9.49414 11.7163L9.44414 11.8066C9.37587 11.9297 9.31085 12.0548 9.24914 12.1816L9.23581 12.2068C9.09414 12.502 8.97164 12.8128 8.86914 13.1296L8.85498 13.1756C8.6123 13.9354 8.49673 14.733 8.51331 15.5335V15.5274V15.6246C8.51755 15.7495 8.52394 15.8742 8.53248 15.9988L8.53081 15.9667C8.54045 16.0861 8.55212 16.2054 8.56581 16.3243L8.56998 16.3608L8.58081 16.4502C8.59581 16.5605 8.61248 16.669 8.63248 16.7784C8.83331 17.8774 9.33664 18.9765 10.0866 19.9557L10.1208 20L10.1558 19.9566C10.455 19.5885 11.1966 18.42 11.26 17.7194V17.7064L11.255 17.6951C10.904 17.0005 10.7209 16.2273 10.7216 15.4423C10.7216 12.8241 12.6966 10.6494 15.2183 10.4923L15.385 10.4862C16.4143 10.4617 17.4253 10.7728 18.2766 11.376L18.2991 11.3925L20 10.362V10.336C20.0042 8.9757 19.7476 7.62822 19.2454 6.37257C18.7431 5.11692 18.0052 3.9784 17.075 3.02376C16.1455 2.06015 15.0426 1.29706 13.8296 0.778202C12.6165 0.259344 11.3171 -0.00508131 10.0058 7.39522e-05L10.005 0.000942095Z" fill="#B61F26"/>
</svg>
