<svg width="18" height="8" viewBox="0 0 18 8" fill="none" xmlns="http://www.w3.org/2000/svg">
<path d="M17.506 1.45504C17.693 1.38715 17.8454 1.24775 17.9296 1.06753C18.0138 0.887309 18.0229 0.681018 17.955 0.494041C17.8871 0.307063 17.7478 0.154715 17.5675 0.0705112C17.3873 -0.0136926 17.181 -0.0228544 16.994 0.045041L4.50004 4.58804V0.750041C4.50004 0.551129 4.42102 0.360363 4.28037 0.219711C4.13972 0.0790585 3.94895 4.09114e-05 3.75004 4.09114e-05H2.25004C2.05113 4.09114e-05 1.86036 0.0790585 1.71971 0.219711C1.57906 0.360363 1.50004 0.551129 1.50004 0.750041V5.68004L0.494041 6.04504C0.307063 6.11294 0.154715 6.25233 0.0705113 6.43255C-0.0136925 6.61277 -0.0228545 6.81906 0.0450409 7.00604C0.112936 7.19302 0.252328 7.34537 0.43255 7.42957C0.612773 7.51377 0.819063 7.52294 1.00604 7.45504L17.506 1.45504Z" fill="#33587D"/>
</svg>
