<svg width="17" height="17" viewBox="0 0 17 17" fill="none" xmlns="http://www.w3.org/2000/svg">
<path fill-rule="evenodd" clip-rule="evenodd" d="M8.55501 0.171431C8.4389 0.0613564 8.285 0 8.12501 0C7.96501 0 7.81111 0.0613564 7.69501 0.171431C5.92606 1.85133 3.57011 2.77254 1.13084 2.7381C0.997951 2.73637 0.867971 2.77705 0.759776 2.85422C0.651581 2.9314 0.570803 3.04105 0.529172 3.16726C0.177483 4.23907 -0.00114605 5.36007 5.5326e-06 6.4881C5.5326e-06 11.4398 3.38667 15.5989 7.96917 16.7781C8.07139 16.8045 8.17862 16.8045 8.28084 16.7781C12.8633 15.5989 16.25 11.4398 16.25 6.4881C16.25 5.32976 16.0642 4.2131 15.7208 3.16726C15.6794 3.0409 15.5986 2.93106 15.4904 2.85373C15.3822 2.77639 15.2522 2.73559 15.1192 2.73726L15 2.7381C12.5033 2.7381 10.2358 1.7631 8.55501 0.171431ZM11.1333 6.85143C11.1833 6.78481 11.2195 6.70886 11.2397 6.62805C11.26 6.54725 11.2638 6.46322 11.2511 6.38089C11.2384 6.29857 11.2094 6.21962 11.1657 6.14868C11.1221 6.07774 11.0647 6.01624 10.9969 5.96781C10.9291 5.91937 10.8524 5.88497 10.7711 5.86662C10.6898 5.84828 10.6057 5.84636 10.5237 5.86098C10.4417 5.87561 10.3635 5.90647 10.2936 5.95177C10.2237 5.99707 10.1635 6.05589 10.1167 6.12476L7.42001 9.89976L6.06667 8.54643C5.94819 8.43603 5.79149 8.37593 5.62957 8.37878C5.46765 8.38164 5.31317 8.44724 5.19865 8.56175C5.08414 8.67626 5.01855 8.83074 5.01569 8.99266C5.01284 9.15458 5.07294 9.31129 5.18334 9.42976L7.05834 11.3048C7.1225 11.3689 7.19984 11.4183 7.285 11.4495C7.37015 11.4807 7.46108 11.493 7.55147 11.4855C7.64187 11.4781 7.72955 11.4511 7.80845 11.4063C7.88734 11.3616 7.95555 11.3002 8.00834 11.2264L11.1333 6.85143Z" fill="#33587D"/>
</svg>
