<svg width="20" height="16" viewBox="0 0 20 16" fill="none" xmlns="http://www.w3.org/2000/svg">
<path d="M1.68875 5.12C1.60569 5.03088 1.50503 4.95997 1.39314 4.91177C1.28125 4.86358 1.16057 4.83914 1.03875 4.84C0.62875 4.84 0.31875 5.03 0.11875 5.42C-0.0812503 5.81 -0.0312502 6.18 0.28875 6.53C1.46875 7.59 2.21875 8.34 2.53875 8.78C2.94875 9.34 3.14875 10.16 3.14875 11.22C3.14875 12.53 3.64875 13.5 4.64875 14.17C5.20875 14.61 5.81875 14.94 6.49875 15.16V11.27C6.49875 10.33 6.16875 9.55 5.53875 8.92M14.4587 8.97C13.8387 9.59 13.4987 10.36 13.4987 11.27V15.2C14.4587 14.86 15.2587 14.33 15.9187 13.63C16.5688 12.93 16.8988 12.16 16.8988 11.22C16.8988 10.09 17.0888 9.28 17.4688 8.78C17.5588 8.62 17.7288 8.42 17.9988 8.17C18.2288 7.92 18.4688 7.68 18.7087 7.46C18.9387 7.25 19.1688 7.03 19.3888 6.81L19.7188 6.53C19.8082 6.44504 19.8791 6.34262 19.9273 6.22908C19.9755 6.11555 19.9998 5.99333 19.9988 5.87C19.9988 5.59 19.9088 5.34 19.7188 5.14C19.5287 4.94 19.2987 4.84 18.9988 4.84C18.6988 4.84 18.4988 4.93 18.3088 5.12M9.99875 16C10.6887 16 11.3587 15.91 11.9987 15.72V12.15C11.9987 11.56 11.8187 11.1 11.4087 10.66C10.9987 10.22 10.5287 10 9.99875 10C9.46875 10 8.99875 10.2 8.61875 10.61C8.21875 11 7.99875 11.46 7.99875 12.06V15.72C8.63875 15.91 9.30875 16 9.99875 16ZM6.99875 4.5C6.99875 5.33 6.32875 6 5.49875 6C4.66875 6 3.99875 5.33 3.99875 4.5C3.99875 3.67 4.66875 3 5.49875 3C6.32875 3 6.99875 3.67 6.99875 4.5ZM15.9987 4.5C15.9987 5.33 15.3287 6 14.4987 6C13.6687 6 12.9987 5.33 12.9987 4.5C12.9987 3.67 13.6687 3 14.4987 3C15.3287 3 15.9987 3.67 15.9987 4.5ZM11.4987 1.5C11.4987 2.33 10.8287 3 9.99875 3C9.16875 3 8.49875 2.33 8.49875 1.5C8.49875 0.67 9.16875 0 9.99875 0C10.8287 0 11.4987 0.67 11.4987 1.5ZM11.4987 7C11.4987 7.83 10.8287 8.5 9.99875 8.5C9.16875 8.5 8.49875 7.83 8.49875 7C8.49875 6.17 9.16875 5.5 9.99875 5.5C10.8287 5.5 11.4987 6.17 11.4987 7Z" fill="#33587D"/>
</svg>
