<svg width="20" height="13" viewBox="0 0 20 13" fill="none" xmlns="http://www.w3.org/2000/svg">
<path fill-rule="evenodd" clip-rule="evenodd" d="M18 1.332V11.25H18.75C18.9489 11.25 19.1397 11.329 19.2803 11.4697C19.421 11.6103 19.5 11.8011 19.5 12C19.5 12.1989 19.421 12.3897 19.2803 12.5303C19.1397 12.671 18.9489 12.75 18.75 12.75H0.75C0.551088 12.75 0.360322 12.671 0.21967 12.5303C0.0790175 12.3897 0 12.1989 0 12C0 11.8011 0.0790175 11.6103 0.21967 11.4697C0.360322 11.329 0.551088 11.25 0.75 11.25H1.5V1.332C1.50023 1.15336 1.56422 0.980671 1.68045 0.845011C1.79668 0.709351 1.95751 0.619632 2.134 0.592002C4.65344 0.197222 7.19981 -0.000710155 9.75 1.9144e-06C12.34 1.9144e-06 14.884 0.202002 17.366 0.592002C17.5425 0.619632 17.7033 0.709351 17.8196 0.845011C17.9358 0.980671 17.9998 1.15336 18 1.332ZM10.5 3.75C10.5 3.55109 10.421 3.36032 10.2803 3.21967C10.1397 3.07902 9.94891 3 9.75 3C9.55109 3 9.36032 3.07902 9.21967 3.21967C9.07902 3.36032 9 3.55109 9 3.75V10.5C9 10.6989 9.07902 10.8897 9.21967 11.0303C9.36032 11.171 9.55109 11.25 9.75 11.25C9.94891 11.25 10.1397 11.171 10.2803 11.0303C10.421 10.8897 10.5 10.6989 10.5 10.5V3.75ZM13.5 3C13.6989 3 13.8897 3.07902 14.0303 3.21967C14.171 3.36032 14.25 3.55109 14.25 3.75V10.5C14.25 10.6989 14.171 10.8897 14.0303 11.0303C13.8897 11.171 13.6989 11.25 13.5 11.25C13.3011 11.25 13.1103 11.171 12.9697 11.0303C12.829 10.8897 12.75 10.6989 12.75 10.5V3.75C12.75 3.55109 12.829 3.36032 12.9697 3.21967C13.1103 3.07902 13.3011 3 13.5 3ZM6.75 3.75C6.75 3.55109 6.67098 3.36032 6.53033 3.21967C6.38968 3.07902 6.19891 3 6 3C5.80109 3 5.61032 3.07902 5.46967 3.21967C5.32902 3.36032 5.25 3.55109 5.25 3.75V10.5C5.25 10.6989 5.32902 10.8897 5.46967 11.0303C5.61032 11.171 5.80109 11.25 6 11.25C6.19891 11.25 6.38968 11.171 6.53033 11.0303C6.67098 10.8897 6.75 10.6989 6.75 10.5V3.75Z" fill="#33587D"/>
</svg>
