<svg width="20" height="20" viewBox="0 0 20 20" fill="none" xmlns="http://www.w3.org/2000/svg">
<path d="M4.74054 0.000143003C4.06832 0.00746938 3.61093 0.195484 3.33565 0.525612C3.0666 0.848238 2.95774 1.3399 3.05229 2.03591C3.09529 2.35288 3.18725 2.70984 3.31569 3.09099C4.4112 2.78735 5.85543 2.83104 7.46385 3.24414C9.38897 3.73845 11.5355 4.77544 13.4958 6.48112C16.4447 9.0469 18.6143 10.8556 20 14.3495C19.8542 12.8833 19.3391 11.4571 18.6364 10.1622C17.5874 8.22917 16.1445 6.60258 15.0591 5.62601C12.485 3.30995 9.83517 1.59491 7.67003 0.703564C6.5875 0.257802 5.62541 0.0194741 4.87754 0.00151119C4.83188 0.000259425 4.78621 -0.000226129 4.74054 0.000143003ZM2.23414 1.84696L0.320936 4.14056C0.0500482 4.46548 -0.0605121 4.95573 0.0322956 5.64803C0.125103 6.34033 0.428474 7.20467 0.927592 8.1582C1.92591 10.0653 3.69692 12.332 6.00307 14.4901L6.29575 14.7632L6.035 15.0694L4.85761 16.4499L15.1348 20.0001L10.0647 10.1856L8.94848 11.5166L8.67712 11.8407L8.37515 11.5469C6.08774 9.31798 4.29523 6.9847 3.24519 4.95008C2.7201 3.93286 2.37876 2.99072 2.26466 2.15035C2.25104 2.04961 2.24082 1.9484 2.23401 1.84692L2.23414 1.84696Z" fill="#B61F26"/>
</svg>
