<svg width="20" height="8" viewBox="0 0 20 8" fill="none" xmlns="http://www.w3.org/2000/svg">
<path d="M9.32714 0.125945C9.45034 0.0438222 9.59508 0 9.74314 0C9.8912 0 10.0359 0.0438222 10.1591 0.125945L19.1591 6.12595C19.2423 6.18005 19.3138 6.25011 19.3697 6.33207C19.4256 6.41402 19.4646 6.50624 19.4846 6.60339C19.5046 6.70054 19.5051 6.80069 19.4861 6.89805C19.4672 6.9954 19.4291 7.08802 19.374 7.17054C19.319 7.25307 19.2482 7.32387 19.1656 7.37883C19.0831 7.43379 18.9904 7.47184 18.893 7.49075C18.7957 7.50967 18.6955 7.50909 18.5984 7.48904C18.5013 7.46899 18.4091 7.42987 18.3271 7.37395L9.74314 1.65095L1.15914 7.37395C0.993631 7.48168 0.792308 7.51978 0.598875 7.47999C0.405442 7.44019 0.23551 7.32571 0.125965 7.1614C0.0164208 6.99708 -0.0238947 6.79619 0.0137699 6.60233C0.0514345 6.40847 0.16404 6.23729 0.327142 6.12595L9.32714 0.125945Z" fill="#33587D"/>
</svg>
