<svg width="24" height="24" viewBox="0 0 24 24" fill="none" xmlns="http://www.w3.org/2000/svg">
<path d="M17.3133 5.68213C16.6437 5.68213 16.1416 6.18427 16.1416 6.85379C16.1416 7.52331 16.6437 8.02545 17.3133 8.02545C17.9828 8.02545 18.4849 7.52331 18.4849 6.85379C18.4849 6.18427 17.9828 5.68213 17.3133 5.68213Z" fill="white"/>
<path d="M12.0422 7.18799C9.28043 7.18799 7.10449 9.44762 7.10449 12.1257C7.10449 14.8038 9.36412 17.0634 12.0422 17.0634C14.7203 17.0634 16.9799 14.8038 16.9799 12.1257C16.9799 9.44762 14.804 7.18799 12.0422 7.18799ZM12.0422 15.3059C10.2847 15.3059 8.86198 13.8832 8.86198 12.1257C8.86198 10.3682 10.2847 8.94548 12.0422 8.94548C13.7997 8.94548 15.2224 10.3682 15.2224 12.1257C15.2224 13.8832 13.7997 15.3059 12.0422 15.3059Z" fill="white"/>
<path d="M16.0586 2H8.10879C4.67782 2 2 4.67782 2 8.0251V15.9749C2 19.3222 4.67782 22 8.0251 22H15.9749C19.3222 22 22 19.3222 22 15.9749V8.0251C22.0837 4.67782 19.4059 2 16.0586 2ZM20.159 16.0586C20.159 18.318 18.318 20.2427 15.9749 20.2427H8.0251C5.76569 20.2427 3.841 18.4017 3.841 16.0586V8.10879C3.841 5.84937 5.68201 3.92469 8.0251 3.92469H15.9749C18.2343 3.92469 20.159 5.76569 20.159 8.10879V16.0586Z" fill="white"/>
</svg>
