<svg width="24" height="24" viewBox="0 0 24 24" fill="none" xmlns="http://www.w3.org/2000/svg">
<path d="M6.5 9C7.32843 9 8 8.32843 8 7.5C8 6.67157 7.32843 6 6.5 6C5.67157 6 5 6.67157 5 7.5C5 8.32843 5.67157 9 6.5 9Z" fill="white"/>
<path d="M5 11C5 10.4477 5.44772 10 6 10H7C7.55228 10 8 10.4477 8 11V19C8 19.5523 7.55228 20 7 20H6C5.44772 20 5 19.5523 5 19V11Z" fill="white"/>
<path d="M10 20H11C11.5523 20 12 19.5523 12 19V14.5C12 13 15 12 15 14V19.0004C15 19.5527 15.4477 20 16 20H17C17.5523 20 18 19.5523 18 19V13C18 11 16.5 10 14.5 10C12.5 10 12 11.5 12 11.5V11C12 10.4477 11.5523 10 11 10H10C9.4477 10 9 10.4477 9 11V19C9 19.5523 9.4477 20 10 20Z" fill="white"/>
<path fill-rule="evenodd" clip-rule="evenodd" d="M19.1364 2C20.7179 2 22 3.22105 22 4.72727V19.2727C22 20.779 20.7179 22 19.1364 22H3.86364C2.2821 22 1 20.779 1 19.2727V4.72727C1 3.22105 2.2821 2 3.86364 2H19.1364ZM19.1364 3.81818C19.6636 3.81818 20.0909 4.2252 20.0909 4.72727V19.2727C20.0909 19.7748 19.6636 20.1818 19.1364 20.1818H3.86364C3.33646 20.1818 2.90909 19.7748 2.90909 19.2727V4.72727C2.90909 4.2252 3.33646 3.81818 3.86364 3.81818H19.1364Z" fill="white"/>
</svg>
