<svg width="18" height="16" viewBox="0 0 18 16" fill="none" xmlns="http://www.w3.org/2000/svg">
<path d="M2 0C1.46957 0 0.960859 0.25934 0.585786 0.720968C0.210714 1.1826 0 1.8087 0 2.46154L0 13.5385C0 14.1913 0.210714 14.8174 0.585786 15.279C0.960859 15.7407 1.46957 16 2 16H6V0H2Z" fill="#169B62"/>
<path d="M6 0H12V16H6V0Z" fill="#EEEEEE"/>
<path d="M16 0H12V16H16C16.5304 16 17.0391 15.7407 17.4142 15.279C17.7893 14.8174 18 14.1913 18 13.5385V2.46154C18 1.8087 17.7893 1.1826 17.4142 0.720968C17.0391 0.25934 16.5304 0 16 0Z" fill="#FF883E"/>
</svg>
