<svg width="24" height="24" viewBox="0 0 24 24" fill="none" xmlns="http://www.w3.org/2000/svg">
<path d="M2.32715 19V18H6.67315V15.5H3.32715V14.5H6.67315V12H4.37715V11H6.67315V8.08899L4.91615 4.23499L5.83115 3.80799L7.75815 7.99999H19.5881L17.7161 4.04199L18.6311 3.61499L20.6731 7.99999V19H2.32715ZM11.6731 12.5H15.6731C15.8151 12.5 15.9338 12.452 16.0291 12.356C16.1245 12.26 16.1725 12.141 16.1731 11.999C16.1738 11.857 16.1258 11.7383 16.0291 11.643C15.9325 11.5477 15.8138 11.5 15.6731 11.5H11.6731C11.5318 11.5 11.4131 11.548 11.3171 11.644C11.2211 11.74 11.1731 11.859 11.1731 12.001C11.1731 12.143 11.2211 12.2617 11.3171 12.357C11.4131 12.4523 11.5318 12.5 11.6731 12.5Z" fill="#EFF4FF"/>
</svg>
