<svg xmlns="http://www.w3.org/2000/svg" width="108" height="37" fill="none" viewBox="0 0 108 37">
  <path fill="currentColor" d="M25.222 18.358c-.677-1.562-1.563-2.916-2.709-4.062-1.145-1.146-2.526-2.005-4.14-2.63-1.615-.625-3.36-.938-5.234-.938-1.875 0-3.62.313-5.234.938a12.364 12.364 0 0 0-4.14 2.63 12.21 12.21 0 0 0-2.709 4.062c-.651 1.563-.99 3.308-.99 5.235 0 1.927.339 3.671.99 5.234a12.48 12.48 0 0 0 2.708 4.062c1.146 1.146 2.526 2.005 4.14 2.63 1.615.625 3.36.938 5.235.938 1.875 0 3.62-.313 5.234-.938a12.364 12.364 0 0 0 4.14-2.63 12.21 12.21 0 0 0 2.709-4.062c.65-1.563.99-3.307.99-5.234s-.34-3.672-.99-5.235Zm-4.01 8.802a8.59 8.59 0 0 1-1.745 2.89 8.358 8.358 0 0 1-2.76 1.928c-1.068.468-2.266.703-3.594.703-1.328 0-2.526-.235-3.594-.703a8.25 8.25 0 0 1-2.734-1.927 8.108 8.108 0 0 1-1.745-2.89 10.615 10.615 0 0 1-.599-3.595c0-1.301.209-2.473.6-3.593a8.59 8.59 0 0 1 1.744-2.89 8.526 8.526 0 0 1 2.734-1.928c1.068-.468 2.266-.703 3.594-.703 1.328 0 2.526.235 3.593.703a8.637 8.637 0 0 1 2.76 1.927 8.11 8.11 0 0 1 1.745 2.89c.391 1.095.6 2.293.6 3.595s-.209 2.473-.6 3.593ZM32.853 15.364h-.078l-.52-4.036H28.79v24.478h4.088V23.88c0-9.401 7.162-9.089 7.162-9.089h2.447v-3.723h-2.317s-5.469-.235-7.318 4.296ZM70.064 18.463a13.053 13.053 0 0 0-2.604-4.089 11.526 11.526 0 0 0-4.062-2.682c-1.589-.65-3.333-.963-5.26-.963-1.927 0-3.411.364-4.896 1.093-1.484.73-2.786 1.771-3.906 3.073h-.104V0h-4.088v35.806h3.463l.625-4.349h.104c.755 1.406 1.98 2.578 3.646 3.542 1.666.963 3.593 1.432 5.78 1.432 2.188 0 3.308-.313 4.818-.964a12.017 12.017 0 0 0 3.906-2.682c1.094-1.146 1.953-2.5 2.578-4.088.625-1.563.938-3.281.938-5.13 0-1.85-.313-3.568-.938-5.13v.026Zm-4.062 8.697a8.59 8.59 0 0 1-1.745 2.89 8.524 8.524 0 0 1-2.734 1.928c-1.068.469-2.265.703-3.594.703-1.328 0-2.526-.234-3.593-.703a8.25 8.25 0 0 1-2.734-1.927 8.108 8.108 0 0 1-1.745-2.89 10.615 10.615 0 0 1-.599-3.594c0-1.302.208-2.474.599-3.594a8.59 8.59 0 0 1 1.745-2.89 8.529 8.529 0 0 1 2.734-1.927c1.068-.47 2.265-.704 3.593-.704 1.329 0 2.526.235 3.594.704a8.252 8.252 0 0 1 2.734 1.927 8.11 8.11 0 0 1 1.745 2.89c.39 1.094.599 2.292.599 3.594s-.208 2.474-.599 3.593ZM80.325 31.9c1.224 1.744 2.578 2.942 4.115 3.593 1.51.651 3.333.964 5.416.964s2.422-.13 3.594-.417a10.35 10.35 0 0 0 3.15-1.328 6.899 6.899 0 0 0 2.214-2.37c.547-.963.833-2.161.833-3.567 0-1.406-.208-2.24-.625-3.073a5.821 5.821 0 0 0-1.718-2.083c-.73-.547-1.589-.99-2.552-1.328-.964-.339-2.005-.6-3.073-.808a20.139 20.139 0 0 1-2.318-.52c-.755-.209-1.406-.443-1.979-.73-.573-.286-1.041-.598-1.354-.963-.338-.365-.495-.807-.495-1.328 0-.52.157-1.042.443-1.484.287-.443.677-.782 1.12-1.068a4.767 4.767 0 0 1 1.536-.625 7.713 7.713 0 0 1 1.693-.208c1.224 0 2.265.26 3.125.807a6.372 6.372 0 0 1 2.057 2.11l3.411-2.24c-.833-1.563-2.005-2.709-3.49-3.412-1.484-.703-3.098-1.041-4.843-1.041-1.744 0-2.265.156-3.359.468-1.094.313-2.057.756-2.917 1.355a7.122 7.122 0 0 0-2.083 2.24c-.52.91-.781 1.952-.781 3.15s.234 2.292.703 3.073a5.612 5.612 0 0 0 1.875 1.953c.781.495 1.693.911 2.734 1.224a36.02 36.02 0 0 0 3.307.833c.651.13 1.302.286 1.927.469a7.46 7.46 0 0 1 1.667.703c.495.286.885.65 1.172 1.068.286.416.442.963.442 1.614 0 .651-.156 1.224-.468 1.693-.313.468-.73.859-1.25 1.172a5.66 5.66 0 0 1-1.745.677 9.651 9.651 0 0 1-1.9.208c-1.46 0-2.683-.287-3.647-.885-.963-.6-1.848-1.407-2.63-2.396l-3.255 2.5h-.052Z"></path>
  <path fill="#FF0000" d="M102.302 30.78a3.047 3.047 0 0 0-.911 2.213c0 .86.312 1.615.963 2.214s1.38.911 2.161.911c.782 0 1.537-.312 2.162-.911.651-.599.963-1.354.963-2.214 0-.859-.312-1.614-.911-2.213a3.047 3.047 0 0 0-2.214-.911c-.859 0-1.614.312-2.213.911Z"></path>
  <path fill="currentColor" d="M77.98 11.354h-4.088v24.478h4.088V11.353ZM78.267 0h-4.713v4.583h4.713V0Z"></path>
</svg>