<svg width="21" height="17" viewBox="0 0 21 17" fill="none" xmlns="http://www.w3.org/2000/svg">
<path fill-rule="evenodd" clip-rule="evenodd" d="M1.519 5.447L16.5 0V3.421L20.506 4.878C20.693 4.9459 20.8453 5.08529 20.9295 5.26551C21.0137 5.44573 21.0229 5.65202 20.955 5.839C20.8871 6.02598 20.7477 6.17833 20.5675 6.26253C20.3873 6.34673 20.181 6.3559 19.994 6.288L19.5 6.108V14.583H20.25C20.4489 14.583 20.6397 14.662 20.7803 14.8027C20.921 14.9433 21 15.1341 21 15.333C21 15.5319 20.921 15.7227 20.7803 15.8633C20.6397 16.004 20.4489 16.083 20.25 16.083H0.75C0.551088 16.083 0.360322 16.004 0.21967 15.8633C0.0790177 15.7227 0 15.5319 0 15.333C0 15.1341 0.0790177 14.9433 0.21967 14.8027C0.360322 14.662 0.551088 14.583 0.75 14.583H1.5V5.454L1.519 5.447ZM16.5 14.583V5.017L18 5.563V14.583H16.5ZM7.5 8.583C7.30109 8.583 7.11032 8.66202 6.96967 8.80267C6.82902 8.94332 6.75 9.13409 6.75 9.333V13.833C6.75 14.247 7.086 14.583 7.5 14.583H10.5C10.6989 14.583 10.8897 14.504 11.0303 14.3633C11.171 14.2227 11.25 14.0319 11.25 13.833V9.333C11.25 9.13409 11.171 8.94332 11.0303 8.80267C10.8897 8.66202 10.6989 8.583 10.5 8.583H7.5Z" fill="#ffffffff"/>
</svg>
