<svg width="20" height="19" viewBox="0 0 20 19" fill="none" xmlns="http://www.w3.org/2000/svg">
<path fill-rule="evenodd" clip-rule="evenodd" d="M6 3.75C6 2.75544 6.39509 1.80161 7.09835 1.09835C7.80161 0.395088 8.75544 0 9.75 0C10.7446 0 11.6984 0.395088 12.4017 1.09835C13.1049 1.80161 13.5 2.75544 13.5 3.75C13.5 4.74456 13.1049 5.69839 12.4017 6.40165C11.6984 7.10491 10.7446 7.5 9.75 7.5C8.75544 7.5 7.80161 7.10491 7.09835 6.40165C6.39509 5.69839 6 4.74456 6 3.75ZM13.5 6.75C13.5 5.95435 13.8161 5.19129 14.3787 4.62868C14.9413 4.06607 15.7044 3.75 16.5 3.75C17.2956 3.75 18.0587 4.06607 18.6213 4.62868C19.1839 5.19129 19.5 5.95435 19.5 6.75C19.5 7.54565 19.1839 8.30871 18.6213 8.87132C18.0587 9.43393 17.2956 9.75 16.5 9.75C15.7044 9.75 14.9413 9.43393 14.3787 8.87132C13.8161 8.30871 13.5 7.54565 13.5 6.75ZM0 6.75C0 5.95435 0.316071 5.19129 0.87868 4.62868C1.44129 4.06607 2.20435 3.75 3 3.75C3.79565 3.75 4.55871 4.06607 5.12132 4.62868C5.68393 5.19129 6 5.95435 6 6.75C6 7.54565 5.68393 8.30871 5.12132 8.87132C4.55871 9.43393 3.79565 9.75 3 9.75C2.20435 9.75 1.44129 9.43393 0.87868 8.87132C0.316071 8.30871 0 7.54565 0 6.75ZM4.06 12.117C4.66995 11.161 5.51108 10.3743 6.50562 9.82944C7.50016 9.28463 8.61601 8.99936 9.75 9C10.6998 8.99913 11.6391 9.19888 12.5064 9.58616C13.3737 9.97344 14.1494 10.5395 14.7827 11.2474C15.4161 11.9552 15.8928 12.7888 16.1817 13.6936C16.4705 14.5985 16.565 15.5541 16.459 16.498C16.446 16.6153 16.4056 16.7278 16.341 16.8265C16.2763 16.9252 16.1893 17.0073 16.087 17.066C14.1586 18.1725 11.9733 18.7532 9.75 18.75C7.445 18.75 5.28 18.138 3.413 17.066C3.31069 17.0073 3.22368 16.9252 3.15904 16.8265C3.09441 16.7278 3.05396 16.6153 3.041 16.498C2.87305 14.9646 3.23246 13.4198 4.06 12.118V12.117Z" fill="#ffffffff"/>
</svg>
