<svg width="20" height="21" viewBox="0 0 20 21" fill="none" xmlns="http://www.w3.org/2000/svg">
<path d="M9.32714 0.623748C9.45034 0.541625 9.59508 0.497803 9.74314 0.497803C9.8912 0.497803 10.0359 0.541625 10.1591 0.623748L19.1591 6.62375C19.2423 6.67786 19.3138 6.74791 19.3697 6.82987C19.4256 6.91182 19.4646 7.00404 19.4846 7.10119C19.5046 7.19835 19.5051 7.2985 19.4861 7.39585C19.4672 7.4932 19.4291 7.58582 19.374 7.66835C19.319 7.75087 19.2482 7.82167 19.1656 7.87663C19.0831 7.9316 18.9904 7.96964 18.893 7.98856C18.7957 8.00747 18.6955 8.00689 18.5984 7.98684C18.5013 7.96679 18.4091 7.92767 18.3271 7.87175L9.74314 2.14875L1.15914 7.87175C0.993631 7.97948 0.792308 8.01758 0.598875 7.97779C0.405442 7.938 0.23551 7.82352 0.125965 7.6592C0.0164208 7.49488 -0.0238947 7.29399 0.0137699 7.10013C0.0514345 6.90627 0.16404 6.73509 0.327142 6.62375L9.32714 0.623748Z" fill="#ffffffff"/>
<path fill-rule="evenodd" clip-rule="evenodd" d="M18 9.3342V19.2522H18.75C18.9489 19.2522 19.1397 19.3312 19.2803 19.4719C19.421 19.6125 19.5 19.8033 19.5 20.0022C19.5 20.2011 19.421 20.3919 19.2803 20.5325C19.1397 20.6732 18.9489 20.7522 18.75 20.7522H0.75C0.551088 20.7522 0.360322 20.6732 0.21967 20.5325C0.0790175 20.3919 0 20.2011 0 20.0022C0 19.8033 0.0790175 19.6125 0.21967 19.4719C0.360322 19.3312 0.551088 19.2522 0.75 19.2522H1.5V9.3342C1.50023 9.15556 1.56422 8.98287 1.68045 8.84721C1.79668 8.71155 1.95751 8.62183 2.134 8.5942C4.65344 8.19942 7.19981 8.00149 9.75 8.0022C12.34 8.0022 14.884 8.2042 17.366 8.5942C17.5425 8.62183 17.7033 8.71155 17.8196 8.84721C17.9358 8.98287 17.9998 9.15556 18 9.3342ZM10.5 11.7522C10.5 11.5533 10.421 11.3625 10.2803 11.2219C10.1397 11.0812 9.94891 11.0022 9.75 11.0022C9.55109 11.0022 9.36032 11.0812 9.21967 11.2219C9.07902 11.3625 9 11.5533 9 11.7522V18.5022C9 18.7011 9.07902 18.8919 9.21967 19.0325C9.36032 19.1732 9.55109 19.2522 9.75 19.2522C9.94891 19.2522 10.1397 19.1732 10.2803 19.0325C10.421 18.8919 10.5 18.7011 10.5 18.5022V11.7522ZM13.5 11.0022C13.6989 11.0022 13.8897 11.0812 14.0303 11.2219C14.171 11.3625 14.25 11.5533 14.25 11.7522V18.5022C14.25 18.7011 14.171 18.8919 14.0303 19.0325C13.8897 19.1732 13.6989 19.2522 13.5 19.2522C13.3011 19.2522 13.1103 19.1732 12.9697 19.0325C12.829 18.8919 12.75 18.7011 12.75 18.5022V11.7522C12.75 11.5533 12.829 11.3625 12.9697 11.2219C13.1103 11.0812 13.3011 11.0022 13.5 11.0022ZM6.75 11.7522C6.75 11.5533 6.67098 11.3625 6.53033 11.2219C6.38968 11.0812 6.19891 11.0022 6 11.0022C5.80109 11.0022 5.61032 11.0812 5.46967 11.2219C5.32902 11.3625 5.25 11.5533 5.25 11.7522V18.5022C5.25 18.7011 5.32902 18.8919 5.46967 19.0325C5.61032 19.1732 5.80109 19.2522 6 19.2522C6.19891 19.2522 6.38968 19.1732 6.53033 19.0325C6.67098 18.8919 6.75 18.7011 6.75 18.5022V11.7522Z" fill="#2563EB"/>
<path d="M9.75 3.75C10.2473 3.75 10.7242 3.55246 11.0758 3.20082C11.4275 2.84919 11.625 2.37228 11.625 1.875C11.625 1.37772 11.4275 0.900806 11.0758 0.549175C10.7242 0.197544 10.2473 0 9.75 0C9.25272 0 8.77581 0.197544 8.42417 0.549175C8.07254 0.900806 7.875 1.37772 7.875 1.875C7.875 2.37228 8.07254 2.84919 8.42417 3.20082C8.77581 3.55246 9.25272 3.75 9.75 3.75Z" fill="#2563EB"/>
</svg>

