<svg width="21" height="21" viewBox="0 0 21 21" fill="none" xmlns="http://www.w3.org/2000/svg">
<path fill-rule="evenodd" clip-rule="evenodd" d="M10.4948 5.25137C10.4946 4.43137 10.6864 3.62272 11.055 2.89022C11.4236 2.15773 11.9586 1.52175 12.6172 1.03326C13.2759 0.544762 14.0397 0.217337 14.8477 0.0772165C15.6556 -0.0629035 16.4851 -0.0118216 17.2698 0.226369C17.3938 0.263938 17.506 0.332999 17.5954 0.426818C17.6847 0.520638 17.7483 0.636015 17.7798 0.761705C17.8113 0.887394 17.8098 1.01911 17.7752 1.144C17.7407 1.2689 17.6744 1.38272 17.5828 1.47437L14.2628 4.79337C14.3258 5.26837 14.5388 5.72737 14.9038 6.09237C15.2688 6.45737 15.7278 6.67037 16.2038 6.73237L19.5218 3.41337C19.6134 3.32176 19.7273 3.25546 19.8522 3.22093C19.9771 3.1864 20.1088 3.18482 20.2345 3.21635C20.3601 3.24787 20.4755 3.31142 20.5693 3.4008C20.6632 3.49019 20.7322 3.60235 20.7698 3.72637C21.019 4.54722 21.0633 5.41664 20.8987 6.25857C20.7342 7.10049 20.3658 7.88926 19.8259 8.55589C19.286 9.22251 18.5909 9.74667 17.8015 10.0825C17.0122 10.4184 16.1525 10.5556 15.2978 10.4824C14.2798 10.3964 13.4278 10.5824 12.9888 11.1164L5.83879 19.8014C5.54603 20.1551 5.18262 20.4439 4.77183 20.6491C4.36104 20.8543 3.91193 20.9714 3.45325 20.993C2.99457 21.0147 2.53643 20.9403 2.10816 20.7746C1.6799 20.6089 1.29095 20.3557 0.966213 20.031C0.641481 19.7063 0.388126 19.3174 0.222368 18.8892C0.0566113 18.461 -0.0178941 18.0029 0.00362296 17.5442C0.02514 17.0855 0.142205 16.6363 0.347323 16.2255C0.552441 15.8147 0.84109 15.4512 1.19479 15.1584L9.87879 8.00737C10.4118 7.56737 10.5988 6.71637 10.5128 5.69837C10.5005 5.54969 10.4945 5.40056 10.4948 5.25137ZM2.61179 17.6264C2.61179 17.4275 2.69081 17.2367 2.83146 17.096C2.97211 16.9554 3.16288 16.8764 3.36179 16.8764H3.36979C3.5687 16.8764 3.75947 16.9554 3.90012 17.096C4.04077 17.2367 4.11979 17.4275 4.11979 17.6264V17.6344C4.11979 17.8333 4.04077 18.024 3.90012 18.1647C3.75947 18.3054 3.5687 18.3844 3.36979 18.3844H3.36179C3.16288 18.3844 2.97211 18.3054 2.83146 18.1647C2.69081 18.024 2.61179 17.8333 2.61179 17.6344V17.6264Z" fill="#ffffffff"/>
</svg>
